<?xml version="1.0" encoding="utf-8"?>
<svg xmlns="http://www.w3.org/2000/svg" viewBox="0 0 64 64" width="512" height="512">
  <radialGradient id="ojtfe1vb4MAkJSuBfS~f8a" cx="32" cy="34" r="32.002" gradientTransform="matrix(1 0 0 -1 0 66)" gradientUnits="userSpaceOnUse">
    <stop offset="0" stop-color="#f4e9c3" />
    <stop offset=".219" stop-color="#f8eecd" />
    <stop offset=".644" stop-color="#fdf4dc" />
    <stop offset="1" stop-color="#fff6e1" />
  </radialGradient>
  <path fill="url(#ojtfe1vb4MAkJSuBfS~f8a)" d="M63.95,34.13c-0.3,1.7-1.91,2.87-3.65,2.87h-1.8c-2.49,0-4.5,2.01-4.5,4.5c0,1.24,0.5,2.37,1.32,3.18c0.78,0.79,1.87,1.29,3.06,1.31C58.48,46,58.59,46,58.7,46H59c1.83,0,3.27,1.63,2.95,3.53C61.7,51,60.32,52,58.83,52H57c-1.22,0-2.18,1.08-1.97,2.33c0.17,0.99,1.1,1.67,2.1,1.67H58c2.34,0,4.21,2.02,3.98,4.4c-0.21,2.08-2.08,3.6-4.17,3.6H5.5c-2.17,0-3.89-1.99-3.42-4.23C2.41,58.13,3.93,57,5.6,57h0.9c0.69,0,1.32-0.28,1.77-0.73C8.72,55.82,9,55.19,9,54.5s-0.28-1.32-0.73-1.77C7.82,52.28,7.19,52,6.5,52H5c-2.92,0-5.26-2.51-4.98-5.49C0.27,43.91,2.6,42,5.22,42H6.5c2.17,0,3.89-1.99,3.42-4.23C9.59,36.13,8.07,35,6.4,35H5c-1.83,0-3.29-1.64-2.96-3.54C2.3,30,3.68,29,5.17,29H6.5c0.96,0,1.84-0.39,2.47-1.03C9.61,27.34,10,26.46,10,25.5c0-0.08,0-0.15-0.01-0.23C9.87,23.45,8.35,22,6.5,22H4c-2.21,0-4-1.79-4-4c0-0.09,0-0.17,0.01-0.26c0.06-1,0.5-1.9,1.16-2.57C1.9,14.45,2.9,14,4,14h3c0.83,0,1.58-0.34,2.12-0.88S10,11.83,10,11c0-1.66-1.34-3-3-3H6C3.66,8,1.79,5.99,2.02,3.61C2.22,1.53,4.08,0,6.17,0H60c1.83,0,3.29,1.64,2.96,3.54C62.7,5,61.32,6,59.83,6h-0.62c-2.61,0-4.94,1.91-5.19,4.5c-0.28,2.98,2.05,5.49,4.97,5.49c0.21,0,0.38,0,0.51,0.01c2.63,0,4.74,2.26,4.48,4.94C63.76,23.28,61.66,25,59.31,25H56.5c-1.38,0-2.5,1.12-2.5,2.5c0,0.69,0.28,1.32,0.73,1.77C55.18,29.72,55.81,30,56.5,30h4C62.64,30,64.33,31.92,63.95,34.13z" />
  <radialGradient id="ojtfe1vb4MAkJSuBfS~f8b" cx="58.53" cy="20.005" r=".127" gradientTransform="matrix(1 0 0 -1 0 66)" gradientUnits="userSpaceOnUse">
    <stop offset="0" stop-color="#f4e9c3" />
    <stop offset=".219" stop-color="#f8eecd" />
    <stop offset=".644" stop-color="#fdf4dc" />
    <stop offset="1" stop-color="#fff6e1" />
  </radialGradient>
  <path fill="url(#ojtfe1vb4MAkJSuBfS~f8b)" d="M58.7,46h-0.2c-0.04,0-0.08,0-0.12-0.01C58.48,46,58.59,46,58.7,46z" />
  <linearGradient id="ojtfe1vb4MAkJSuBfS~f8c" x1="50.25" x2="50.25" y1="-533.718" y2="-427.166" gradientTransform="matrix(1 0 0 -1 0 -468)" gradientUnits="userSpaceOnUse">
    <stop offset="0" stop-color="#155cde" />
    <stop offset=".122" stop-color="#196ae1" />
    <stop offset=".509" stop-color="#2493e9" />
    <stop offset=".815" stop-color="#2bacee" />
    <stop offset="1" stop-color="#2eb5f0" />
  </linearGradient>
  <path fill="url(#ojtfe1vb4MAkJSuBfS~f8c)" d="M55,57h-9.5c-1.104,0-2-0.896-2-2s0.896-2,2-2H53v-7.5c0-1.104,0.896-2,2-2s2,0.896,2,2V55C57,56.104,56.104,57,55,57z" />
  <linearGradient id="ojtfe1vb4MAkJSuBfS~f8d" x1="13.75" x2="13.75" y1="-533.718" y2="-427.166" gradientTransform="matrix(1 0 0 -1 0 -468)" gradientUnits="userSpaceOnUse">
    <stop offset="0" stop-color="#155cde" />
    <stop offset=".122" stop-color="#196ae1" />
    <stop offset=".509" stop-color="#2493e9" />
    <stop offset=".815" stop-color="#2bacee" />
    <stop offset="1" stop-color="#2eb5f0" />
  </linearGradient>
  <path fill="url(#ojtfe1vb4MAkJSuBfS~f8d)" d="M18.5,57H9c-1.104,0-2-0.896-2-2v-9.5c0-1.104,0.896-2,2-2s2,0.896,2,2V53h7.5c1.104,0,2,0.896,2,2S19.604,57,18.5,57z" />
  <linearGradient id="ojtfe1vb4MAkJSuBfS~f8e" x1="13.75" x2="13.75" y1="-563.13" y2="-456.578" gradientTransform="matrix(1 0 0 -1 0 -468)" gradientUnits="userSpaceOnUse">
    <stop offset="0" stop-color="#155cde" />
    <stop offset=".122" stop-color="#196ae1" />
    <stop offset=".509" stop-color="#2493e9" />
    <stop offset=".815" stop-color="#2bacee" />
    <stop offset="1" stop-color="#2eb5f0" />
  </linearGradient>
  <path fill="url(#ojtfe1vb4MAkJSuBfS~f8e)" d="M9,20.5c-1.104,0-2-0.896-2-2V9c0-1.104,0.896-2,2-2h9.5c1.104,0,2,0.896,2,2s-0.896,2-2,2H11v7.5C11,19.604,10.104,20.5,9,20.5z" />
  <linearGradient id="ojtfe1vb4MAkJSuBfS~f8f" x1="50.25" x2="50.25" y1="-563.13" y2="-456.578" gradientTransform="matrix(1 0 0 -1 0 -468)" gradientUnits="userSpaceOnUse">
    <stop offset="0" stop-color="#155cde" />
    <stop offset=".122" stop-color="#196ae1" />
    <stop offset=".509" stop-color="#2493e9" />
    <stop offset=".815" stop-color="#2bacee" />
    <stop offset="1" stop-color="#2eb5f0" />
  </linearGradient>
  <path fill="url(#ojtfe1vb4MAkJSuBfS~f8f)" d="M55,20.5c-1.104,0-2-0.896-2-2V11h-7.5c-1.104,0-2-0.896-2-2s0.896-2,2-2H55c1.104,0,2,0.896,2,2v9.5C57,19.604,56.104,20.5,55,20.5z" />
  <linearGradient id="ojtfe1vb4MAkJSuBfS~f8g" x1="32" x2="32" y1="5.191" y2="61.419" gradientTransform="matrix(1 0 0 -1 0 66)" gradientUnits="userSpaceOnUse">
    <stop offset="0" stop-color="#155cde" />
    <stop offset=".122" stop-color="#196ae1" />
    <stop offset=".509" stop-color="#2493e9" />
    <stop offset=".815" stop-color="#2bacee" />
    <stop offset="1" stop-color="#2eb5f0" />
  </linearGradient>
  <path fill="url(#ojtfe1vb4MAkJSuBfS~f8g)" d="M19.189,41.525l7.191-21.401C27.175,17.712,29.408,16,32.057,16c2.611,0,4.844,1.712,5.638,4.125l7.115,21.167C44.925,41.681,45,42.07,45,42.459C45,44.405,43.448,46,41.556,46c-1.552,0-2.839-1.051-3.293-2.452l-1.249-4.086H26.721l-1.249,4.164C25.055,45.027,23.807,46,22.293,46C20.476,46,19,44.482,19,42.615C19,42.226,19.075,41.875,19.189,41.525z M35.236,33.704l-1.816-5.953c-0.574-1.887-0.913-3.249-1.325-4.941h-0.454c-0.411,1.69-0.751,3.056-1.325,4.941L28.5,33.704H35.236z" />
</svg>